<svg width="71" height="71" viewBox="0 0 71 71" fill="none" xmlns="http://www.w3.org/2000/svg">
<mask id="mask0_117_23" style="mask-type:alpha" maskUnits="userSpaceOnUse" x="0" y="0" width="71" height="71">
<circle cx="35.5" cy="35.5" r="35.5" fill="#218BD8"/>
</mask>
<g mask="url(#mask0_117_23)">
<circle cx="35.5" cy="35.5" r="35.5" fill="#218BD8"/>
<rect x="50.41" y="31.95" width="22.3169" height="4.2141" rx="2.10705" fill="#46CB5E"/>
<rect x="57.0667" y="43.9006" width="13.1673" height="4.23236" rx="2.11618" fill="#46CB5E"/>
<rect x="56.6924" y="35.7486" width="13.1673" height="4.23236" rx="2.11618" fill="#46CB5E"/>
<circle cx="58.2424" cy="46.0168" r="2.11618" fill="#218BD8"/>
<circle cx="57.868" cy="37.8648" r="2.11618" fill="#218BD8"/>
<circle cx="69.5287" cy="46.0168" r="2.11618" fill="#218BD8"/>
<circle cx="69.1544" cy="37.8648" r="2.11618" fill="#218BD8"/>
<rect x="54.0305" y="39.9034" width="21.3673" height="4.2141" rx="2.10705" fill="#46CB5E"/>
<rect x="54.9505" y="47.8978" width="17.1646" height="4.23236" rx="2.11618" fill="#46CB5E"/>
<rect x="35.5" y="67.45" width="22.3169" height="4.2141" rx="2.10705" fill="#46CB5E"/>
<rect x="26.412" y="52.4909" width="16.2098" height="5.21031" rx="2.60515" fill="#46CB5E"/>
<circle cx="27.8593" cy="55.0961" r="2.60515" fill="#218BD8"/>
<circle cx="41.7535" cy="55.0961" r="2.60515" fill="#218BD8"/>
<rect x="20.0438" y="47.57" width="28.9461" height="5.21031" rx="2.60515" fill="#46CB5E"/>
<rect x="23.8068" y="57.4117" width="21.1307" height="5.21031" rx="2.60515" fill="#46CB5E"/>
<rect x="30.0254" y="15.4972" width="18.5954" height="6.63576" rx="3.31788" fill="#46CB5E"/>
<ellipse cx="31.6856" cy="18.8151" rx="2.98855" ry="3.31788" fill="#218BD8"/>
<ellipse cx="47.6247" cy="18.8151" rx="2.98855" ry="3.31788" fill="#218BD8"/>
<rect x="22.72" y="9.23" width="33.2061" height="6.63576" rx="3.31788" fill="#46CB5E"/>
<rect x="27.0368" y="21.7642" width="24.2405" height="6.63576" rx="3.31788" fill="#46CB5E"/>
<rect x="5.46701" y="4.22453" width="13.916" height="4.473" rx="2.2365" fill="#46CB5E"/>
<circle cx="6.70946" cy="6.46103" r="2.2365" fill="#218BD8"/>
<circle cx="18.6375" cy="6.46103" r="2.2365" fill="#218BD8"/>
<rect y="-7.62939e-06" width="24.85" height="4.473" rx="2.2365" fill="#46CB5E"/>
<rect x="3.23048" y="8.449" width="18.1405" height="4.473" rx="2.2365" fill="#46CB5E"/>
<rect x="22.7929" y="28.4499" width="15.2324" height="4.87022" rx="2.43511" fill="#46CB5E"/>
<circle cx="24.1918" cy="30.885" r="2.43511" fill="#218BD8"/>
<circle cx="37.2481" cy="30.9886" r="2.43511" fill="#218BD8"/>
<rect x="4.97001" y="21.3" width="46.7334" height="7.35714" rx="3.67857" fill="#46CB5E"/>
<path d="M13.7778 36.7914C13.7778 34.7598 15.4247 33.1128 17.4564 33.1128H47.403C49.4346 33.1128 51.0816 34.7598 51.0816 36.7914V36.7914C51.0816 38.823 49.4346 40.47 47.403 40.47H17.4564C15.4247 40.47 13.7778 38.823 13.7778 36.7914V36.7914Z" fill="#46CB5E"/>
<rect x="58.1063" y="27.3295" width="14.1913" height="4.56148" rx="2.28074" transform="rotate(-180 58.1063 27.3295)" fill="white"/>
<circle cx="56.8392" cy="25.0488" r="2.28074" transform="rotate(-180 56.8392 25.0488)" fill="#218BD8"/>
<circle cx="44.6754" cy="25.0488" r="2.28074" transform="rotate(-180 44.6754 25.0488)" fill="#46CB5E"/>
<rect x="63.6815" y="31.6376" width="25.3415" height="4.56148" rx="2.28074" transform="rotate(-180 63.6815 31.6376)" fill="white"/>
<rect x="60.3871" y="23.0215" width="18.4993" height="4.56148" rx="2.28074" transform="rotate(-180 60.3871 23.0215)" fill="white"/>
<rect x="19.7663" y="66.3795" width="14.1913" height="4.56148" rx="2.28074" transform="rotate(-180 19.7663 66.3795)" fill="white"/>
<circle cx="18.4992" cy="64.0988" r="2.28074" transform="rotate(-180 18.4992 64.0988)" fill="#218BD8"/>
<circle cx="6.33538" cy="64.0988" r="2.28074" transform="rotate(-180 6.33538 64.0988)" fill="#46CB5E"/>
<rect x="25.3415" y="70.6876" width="25.3415" height="4.56148" rx="2.28074" transform="rotate(-180 25.3415 70.6876)" fill="white"/>
<rect x="22.0471" y="62.0715" width="18.4993" height="4.56148" rx="2.28074" transform="rotate(-180 22.0471 62.0715)" fill="white"/>
<rect x="12.275" y="40.47" width="12.8434" height="2.42522" rx="1.21261" fill="white"/>
<rect x="18.2185" y="46.96" width="5.32866" height="1.7079" rx="0.853952" fill="white"/>
<rect x="15.9982" y="42.8952" width="5.22618" height="1.67375" rx="0.836873" fill="white"/>
<circle cx="18.6967" cy="47.814" r="0.853952" fill="#218BD8"/>
<circle cx="16.4593" cy="43.7321" r="0.836873" fill="#218BD8"/>
<circle cx="23.2739" cy="47.814" r="0.853952" fill="#218BD8"/>
<circle cx="20.934" cy="43.7321" r="0.836873" fill="#218BD8"/>
<rect x="12.4458" y="44.569" width="19.5043" height="2.42522" rx="1.21261" fill="white"/>
<rect x="12.07" y="48.6679" width="16.6691" height="3.62075" rx="1.81038" fill="white"/>
<rect x="37.2348" y="5.80723" width="7.04144" height="2.46243" rx="1.23121" fill="white"/>
<rect x="34.3009" y="-0.0533333" width="6.90603" height="2.41318" rx="1.20659" fill="white"/>
<ellipse cx="37.8667" cy="7.03844" rx="1.12844" ry="1.23121" fill="#218BD8"/>
<ellipse cx="34.9101" cy="1.15326" rx="1.10587" ry="1.20659" fill="#218BD8"/>
<ellipse cx="43.915" cy="7.03844" rx="1.12844" ry="1.23121" fill="#218BD8"/>
<ellipse cx="40.8232" cy="1.15326" rx="1.10587" ry="1.20659" fill="#218BD8"/>
<rect x="29.6065" y="2.35982" width="25.7735" height="3.49665" rx="1.74832" fill="white"/>
<rect x="29.11" y="8.26965" width="22.0271" height="5.22035" rx="2.61017" fill="white"/>
<rect x="51.12" y="41.18" width="13.49" height="4.97" rx="2.485" fill="white"/>
<rect x="-9.93999" y="29.82" width="26.27" height="5.68" rx="2.84" fill="white"/>
<rect x="38.34" y="56.09" width="19.88" height="2.84" rx="1.42" fill="white"/>
</g>
</svg>
